<?xml version="1.0" encoding="UTF-8"?>
<svg xmlns="http://www.w3.org/2000/svg" xmlns:i="http://ns.adobe.com/AdobeIllustrator/10.0/" version="1.1" viewBox="0 0 1080 1350" width="1080" height="1350">
  <!-- Generator: Adobe Illustrator 29.5.1, SVG Export Plug-In . SVG Version: 2.1.0 Build 141)  -->
  <defs>
    <style>
      .st0 {
        fill: #1d1d1b;
      }
    </style>
  </defs>
  <g id="Base_camisa">
    <g id="Base_camisa1" data-name="Base_camisa">
      <path d="M794.18,682.19l19.87-90.13,28.92,37.96,136.45-111.68,1.08-1.02-75.85-287.66c-.34-.93-.63-1.88-.83-2.85-.01-.06-.01-.13,0-.19-1.03-.4-2.05-.81-3.02-1.34-.06-.03-.11-.08-.15-.14l-197.88-100.28-.13.22h-314.87l-28,17.23-166.57,86.45c-.04.07-.09.13-.18.17-1.73.97-3.3,2.27-5.19,2.9-.04.01-.08.01-.12.01-.03.79-.15,1.56-.39,2.31l.07.16-67.9,285.41,153.77,139.23,11.83-29.75,11.24,50.84.11.35c.16.42,15.82,41.79,26.4,95.07,9.73,48.99,17.04,118.38-3.39,170.66l-62.64,191.46,1.53,1.08c.53.38,13.37,9.4,38.65,20.59,23.25,10.3,61.84,24.42,113.62,33.16,33.06,5.58,67.57,8.38,103.2,8.38,27.03,0,54.71-1.61,82.9-4.83,81.61-9.32,167.74-24.15,256-60.07l2.05-.83-66.55-264.62c-.24-.98-23.47-99.68,5.94-188.12l.04-.12h-.01ZM974.92,515.66l-131.35,106.86-28.19-37,11.61-92.44,26.86-137.12c12.93-50.49,25.04-91.92,46.77-121.82l74.3,281.53h0ZM271.28,650.35l-146.23-132.4,65.6-275.71,59.81,145.31.08.17c.27.54,24.7,49.57,26.04,78.09v.12c-.38,2.19-.58,5.9-.66,10.69-2.81,31.32,6.4,133.89,7.3,143.7l-11.94,30.04v-.02ZM783.35,871.68l65.44,260.34c-87.03,35.24-171.93,49.66-252.39,58.89-64.84,7.43-126.96,6.27-184.63-3.43-51.3-8.64-89.5-22.57-112.52-32.75-20.06-8.87-32.39-16.5-36.51-19.19l61.38-187.63c20.85-53.44,13.47-123.86,3.6-173.54-10.31-51.88-25.41-92.59-26.55-95.64l-12.92-58.44-2.41-29.09c-.06-.94-5.37-82.53-4.94-114.14.1-1.08.21-2.09.34-2.97.36-2.44.45-5.11.34-7.96,2.13-18.12-20.12-68.53-21.06-70.63l-66.99-161.16,193.24-101.15.03.04c1.1-.49,2.41-.58,3.86-.07.92.32,1.8.72,2.66,1.16l-3.12-5.19h310.09l-.96,1.66c1.67.19,3.32,1.13,4.31,2.54l1.13-1.96,192.95,97.97c-3.08,3.85-4.08,3.99-11.45,17.88-9.72,18.29-23.79,50.33-35.63,99.08l-1.36,6.92c-6.32,24.68-12.28,52.12-17.85,82.28-14.38,77.88-20.79,146.48-21.14,150.33l-20.94,94.99c-29.82,89.83-6.26,189.81-6.01,190.86h.01Z"/>
      <rect x="264.77" y="401.77" width="573" height="4.05"/>
      <path d="M547.12,374.8l-3.98-3.96c51.54-53.16,48.56-98.24,48.52-98.69l-.26-3.22,55.86,2.93c30.1-32.83,42.74-69.46,48.04-94.51,4.6-21.74,4.62-38.74,4.42-44.99h-282.99v-5.66h288.21l.21,2.59c.07.83,1.59,20.78-4.36,49.03-5.49,26.06-18.68,64.28-50.36,98.36l-.89.95-52.25-2.74c-.14,11.58-4.19,52.47-50.18,99.9h.01Z"/>
      <path d="M387.18,126.69l-.21,2.59c-.07.83-1.59,20.78,4.36,49.03,5.49,26.06,18.68,64.28,50.36,98.36l.89.95,53.05-2.78c3.75,12.64,24.3,77.36,66.14,129.54h6.45l.46-.4c-47.41-57.3-68.1-132.09-68.3-132.84l-.6-2.19-54.91,2.88c-30.1-32.83-42.74-69.46-48.04-94.51-4.6-21.74-4.62-38.74-4.42-44.99h282.99v-5.66h-288.22Z"/>
    </g>
  </g>
  
  
</svg>
