<?xml version="1.0" encoding="UTF-8"?>
<svg xmlns="http://www.w3.org/2000/svg" xmlns:i="http://ns.adobe.com/AdobeIllustrator/10.0/" version="1.1" viewBox="0 0 1080 1350" width="1080" height="1350">
  <!-- Generator: Adobe Illustrator 29.5.1, SVG Export Plug-In . SVG Version: 2.1.0 Build 141)  -->
  <defs>
    <style>
      .st0 {
        fill: #1d1d1b;
      }

      .st1 {
        fill: #1d1d1b;
      }

      .st2 {
        fill: #1d1d1b;
      }

      .st3 {
        fill: #1d1d1b;
      }

      .st4 {
        fill: #1d1d1b;
      }
    </style>
  </defs>
  <g id="fondo_camisa">
    <path class="st2" d="M785.41,693.67l19.87-88.93,28.92,37.45,136.01-126.87,1.08-1.01-75.41-267.14c-.34-.92-.63-1.85-.83-2.81-.01-.06-.01-.13,0-.19-1.03-.39-2.05-.8-3.02-1.32-.06-.03-.11-.08-.15-.14l-197.88-98.94-154.5,263.8-160.5-263.58-28,17-166.57,85.3c-.04.07-.09.13-.18.17-1.73.96-3.3,2.24-5.19,2.86-.04.01-.08.01-.12.01-.03.78-.15,1.54-.39,2.28l.07.16-67.9,281.58,153.77,137.37,11.83-29.35,11.24,50.16.11.35c.16.41,15.82,41.23,26.4,93.8,9.73,48.34,17.04,116.8-3.39,168.38l-62.64,188.9,1.53,1.07c.53.37,13.37,9.27,38.65,20.32,23.25,10.16,61.84,24.09,113.62,32.72,33.06,5.51,67.57,8.27,103.2,8.27,27.03,0,54.71-1.59,82.9-4.77,81.61-9.2,167.74-31.83,256-67.27l2.05-.82-66.55-253.09c-.24-.97-23.47-98.35,5.94-185.61l.04-.12ZM965.71,512.68l-130.91,122.12-28.19-36.51,11.61-91.21,26.86-135.29c12.93-49.82,25.04-90.69,46.77-120.19l73.86,261.08ZM262.51,662.26l-146.23-130.63,65.6-272.03,59.82,143.37.08.17c.27.53,24.7,48.91,26.04,77.05-.01.08-.01.16-.03.24-.36,2.17-.55,5.79-.63,10.43-2.81,30.9,6.4,132.1,7.3,141.78l-11.94,29.64ZM774.58,880.64l65.44,248.86c-87.03,34.77-171.93,57-252.39,66.1-64.84,7.33-126.96,6.19-184.63-3.38-51.3-8.52-89.5-22.27-112.52-32.31-20.06-8.75-32.39-16.28-36.51-18.93l61.38-185.12c20.85-52.73,13.47-122.21,3.6-171.22-10.31-51.19-25.41-91.35-26.55-94.36l-12.92-57.66-2.41-28.7c-.06-.93-5.37-81.43-4.94-112.62.1-1.07.21-2.06.34-2.93.36-2.41.45-5.04.34-7.85,2.13-17.88-20.12-67.61-21.06-69.69l-66.99-159.01,193.24-99.8,161.5,265.42,156.5-267.2,192.95,96.66c-3.08,3.8-4.08,3.94-11.45,17.64-9.72,18.05-23.79,49.66-35.63,97.76l-1.36,6.83c-6.32,24.35-12.28,51.42-17.85,81.18-14.38,76.84-20.79,144.52-21.14,148.32l-20.94,93.72c-29.82,88.63-6.26,187.28-6.01,188.31ZM694,144h-315v4h315v-4Z"/>
  </g>
  
  
  
  
  
</svg>
