<?xml version="1.0" encoding="UTF-8"?>
<svg xmlns="http://www.w3.org/2000/svg" xmlns:i="http://ns.adobe.com/AdobeIllustrator/10.0/" version="1.1" viewBox="0 0 1080 1350" width="1080" height="1350">
  <!-- Generator: Adobe Illustrator 29.5.1, SVG Export Plug-In . SVG Version: 2.1.0 Build 141)  -->
  <defs>
    <style>
      .st0 {
        fill: #1d1d1b;
      }

      .st1 {
        fill: #1d1d1b;
      }

      .st2 {
        fill: #1d1d1b;
      }

      .st3 {
        fill: #1d1d1b;
      }

      .st4 {
        fill: #1d1d1b;
      }

      .st5 {
        fill: #1d1d1b;
      }
    </style>
  </defs>
  <g id="Base_camisa">
    <g id="Base_camisa1" data-name="Base_camisa">
      <g>
        <path class="st3" d="M796.97,682.11l19.87-89.93,28.92,37.87,136.45-111.43,1.08-1.02-75.85-287.01c-.34-.93-.63-1.87-.83-2.84-.01-.06-.01-.13,0-.19-1.03-.39-2.05-.81-3.02-1.33-.06-.03-.11-.08-5.04-.84l-189.98-98.11-8,2.02-317-2.02-187.57,102.44c-.04.07-.09.13-.18.17-1.73.97-3.3,2.27-5.19,2.89-.04.01-.08.01-.12.01-.03.79-.15,1.56-.39,2.31l.07.16-67.91,284.75,153.77,138.92,11.83-29.68,11.24,50.72.11.35c.16.41,15.82,41.69,26.4,94.86,9.73,48.88,17.04,118.11-3.39,170.28l-62.64,191.03,1.53,1.08c.53.37,13.37,9.37,38.65,20.55,23.25,10.27,61.84,24.36,113.62,33.09,33.06,5.57,67.57,8.36,103.2,8.36,27.03,0,54.71-1.61,82.9-4.82,81.61-9.3,168.74-23.09,257-58.93l2.05-.83-67.55-265.04c-.24-.98-23.47-99.46,5.94-187.7l.04-.12h-.01ZM977.72,515.95l-131.35,106.62-28.19-36.92,11.61-92.24,26.86-136.81c12.93-50.38,25.04-91.71,46.77-121.54l74.3,280.9ZM274.07,650.35l-146.23-132.1,65.6-275.09,59.81,144.98.08.17c.27.54,24.7,49.46,26.04,77.92,0,.08,0,.16-.03.24-.36,2.19-.55,5.86-.63,10.55-2.81,31.25,6.4,133.59,7.3,143.38l-11.94,29.97v-.02ZM786.15,871.18l66.44,260.76c-87.03,35.16-172.93,48.54-253.39,57.74-64.84,7.41-126.96,6.26-184.63-3.42-51.3-8.62-89.5-22.52-112.52-32.67-20.06-8.85-32.39-16.46-36.51-19.14l61.38-187.2c20.85-53.32,13.47-123.59,3.6-173.15-10.31-51.77-25.41-92.38-26.55-95.42l-12.92-58.31-2.41-29.02c-.06-.94-5.37-82.35-4.94-113.89.1-1.08.21-2.08.34-2.96.36-2.44.45-5.1.34-7.94,2.13-18.08-20.12-68.37-21.06-70.47l-66.99-160.8,192.24-102.95,1.03,2.06c1.1-.49,2.41-.58,3.86-.07.92.32,1.8.72,2.66,1.15l-3.12-5.18,305.56,3.03,8-2.02,193.95,98.98c-3.08,3.84-4.08,3.98-11.45,17.84-9.72,18.25-23.79,50.22-35.63,98.86l-1.36,6.91c-6.32,24.62-12.28,52-17.85,82.09-14.38,77.7-20.79,146.15-21.14,149.99l-20.94,94.77c-29.82,89.63-6.26,189.39-6.01,190.43h.02Z"/>
        <g>
          <path d="M549.06,405.84l-157.33-274.52,315.68-1.04-158.36,275.56h0ZM400.39,136.35l148.67,259.42,149.64-260.41-298.32.98h.01Z"/>
          <g>
            <polygon class="st4" points="705.06 144.95 388.06 144.95 385.06 128.77 705.06 128.77 705.06 144.95"/>
            <path d="M707.56,147.48h-321.58l-3.42-20.23h326l-1,20.23ZM390.14,142.43h312.42v-11.12h-314.49l2.06,11.12h0Z"/>
          </g>
          <g>
            <polygon class="st4" points="624.06 288.55 603.92 275.57 698.63 128.55 710.63 128.82 719.56 133.32 624.06 288.55"/>
            <path d="M624.85,292.06l-23.29-15.14,96-149.67h14l10.98,7.06-97.7,157.75h.01ZM607.39,274.81l15.88,10.23,92.71-150.7-5.97-3.01-10.05-.22-92.58,143.7h0Z"/>
          </g>
          <g>
            <polygon class="st4" points="603.37 276.05 536.56 386.14 548.56 408.39 624.1 288.65 603.37 276.05"/>
            <path d="M548.71,411.63l-15.04-25.56,69.89-112.18,24.03,13.94-78.88,123.81h0ZM539.45,386.22l9.28,17.2,71.88-113.94-15.41-8.96-65.76,105.69h.01Z"/>
          </g>
          <g>
            <polygon class="st4" points="602.75 277.88 622.84 290.84 624.53 288.02 604.44 275.06 602.75 277.88"/>
            <polygon points="623.56 294.11 600.34 279.7 604.63 272.55 627.94 287.22 623.56 294.11"/>
          </g>
          <g>
            <polygon class="st4" points="472.56 288.05 493.06 274.39 397.49 128.55 384.56 128.27 375.56 134.34 472.56 288.05"/>
            <path d="M471.82,291.57l-99.68-157.96,10.43-6.35h17l93,146.63-20.74,17.68h-.01ZM378.99,135.06l94.32,149.46,16.26-9.63-93.43-143.85-10.84-.24-6.31,4.25h0Z"/>
          </g>
          <g>
            <polygon class="st4" points="493.06 274.39 560.56 386.14 548.56 408.39 473.02 288.65 493.06 274.39"/>
            <path d="M548.71,411.63l-79.08-123.66,21.93-15.1,71.89,113.19-14.74,25.56h0ZM476.42,289.33l71.98,114.09,10.17-15.26-68-109.22-14.15,10.39h0Z"/>
          </g>
          <g>
            <polygon class="st4" points="494.38 277.88 475.06 290.57 473.06 287.54 492.69 275.06 494.38 277.88"/>
            <polygon points="474.35 294.05 469.56 286.78 491.56 271.87 495.78 279.68 474.35 294.05"/>
          </g>
        </g>
      </g>
      <polygon class="st3" points="551.62 444.5 361.46 145.81 365.67 143.08 551.51 434.97 729.93 139.59 734.2 142.22 551.62 444.5"/>
    </g>
  </g>
  
  
  
  
  
</svg>
