<?xml version="1.0" encoding="UTF-8"?>
<svg xmlns="http://www.w3.org/2000/svg" xmlns:i="http://ns.adobe.com/AdobeIllustrator/10.0/" version="1.1" viewBox="0 0 1080 1350" width="1080" height="1350">
  <!-- Generator: Adobe Illustrator 29.5.1, SVG Export Plug-In . SVG Version: 2.1.0 Build 141)  -->
  <defs>
    <style>
      .st0 {
        fill: #1d1d1b;
      }

      .st1 {
        fill: #1d1d1b;
      }
    </style>
  </defs>
  <g id="Capa_1">
    <g id="Base_camisa">
      <path d="M797.13,684.14l19.99-90.23,29.09,38,137.26-111.8,1.09-1.02-76.3-287.96c-.34-.93-.63-1.88-.83-2.85-.01-.06-.01-.13,0-.19-1.04-.4-2.06-.81-3.04-1.34-.06-.03-.11-.08-5.07-.84l-199.05-100.38-.12-.08h-316.77s-190.78,104.81-190.78,104.81c-.04.07-.09.13-.18.17-1.74.97-3.32,2.27-5.22,2.9-.04.01-.08.01-.12.01-.03.79-.15,1.56-.39,2.31l.07.16-68.3,285.69,154.68,139.37,11.9-29.78,11.31,50.89.11.36c.16.42,15.91,41.83,26.56,95.17,9.79,49.04,17.14,118.5-3.41,170.84l-63.01,191.65,1.54,1.09c.53.38,13.45,9.41,38.88,20.62,23.39,10.31,62.21,24.44,114.29,33.2,33.26,5.59,67.97,8.39,103.81,8.39,27.19,0,55.03-1.61,83.39-4.84,82.09-9.33,168.74-32.29,257.52-68.25l2.06-.83-66.95-256.78c-.24-.98-23.61-99.78,5.98-188.32l.04-.12h-.01ZM978.95,517.44l-132.13,106.97-28.36-37.04,11.68-92.54,27.02-137.26c13.01-50.55,25.19-92.01,47.05-121.94l74.74,281.82h0ZM271.13,652.27l-147.1-132.53,65.99-276,60.17,145.46.08.17c.27.54,24.85,49.62,26.19,78.17-.01.08-.01.16-.03.24-.36,2.2-.55,5.87-.63,10.58-2.83,31.35,6.44,134.03,7.34,143.85l-12.01,30.07v-.02ZM786.24,873.83l65.83,252.49c-87.55,35.28-172.95,57.83-253.89,67.06-65.22,7.44-127.71,6.28-185.73-3.43-51.6-8.64-90.03-22.59-113.19-32.78-20.18-8.88-32.58-16.52-36.73-19.21l61.74-187.82c20.97-53.5,13.55-123.99,3.62-173.72-10.37-51.94-25.56-92.68-26.71-95.74l-13-58.5-2.42-29.12c-.06-.94-5.4-82.62-4.97-114.26.1-1.09.21-2.09.34-2.97.36-2.45.45-5.11.34-7.96,2.14-18.14-20.24-68.6-21.19-70.71l-67.39-161.33,193.25-103.65,1.17,2.43c1.11-.49,2.42-.58,3.88-.07.93.32,1.81.72,2.68,1.16l-3.14-5.19h308.38l202.14,100.32c-3.1,3.86-4.1,4-11.52,17.9-9.78,18.31-23.93,50.38-35.84,99.19l-1.37,6.93c-6.36,24.71-12.35,52.17-17.96,82.36-14.47,77.96-20.91,146.63-21.27,150.48l-21.06,95.09c-30,89.92-6.3,190.01-6.05,191.06h.02Z"/>
      <path d="M541.2,442.45L382.32,125.44h317.81s-158.93,317.02-158.93,317.02h0ZM389.43,131.35l151.78,304.55,150.89-305.39-301.62,1.54-1.05-.7Z"/>
    </g>
    
    
  </g>
  
  
  
</svg>
