<?xml version="1.0" encoding="UTF-8"?>
<svg xmlns="http://www.w3.org/2000/svg" xmlns:xlink="http://www.w3.org/1999/xlink" xmlns:i="http://ns.adobe.com/AdobeIllustrator/10.0/" version="1.1" viewBox="0 0 1080 1350" width="1080" height="1350">
  <!-- Generator: Adobe Illustrator 29.5.1, SVG Export Plug-In . SVG Version: 2.1.0 Build 141)  -->
  <defs>
    <style>
      .st0 {
        fill: none;
      }

      .st1 {
        fill: #1d1d1b;
      }

      .st2 {
        fill: #1d1d1b;
      }

      .st3 {
        fill: #1d1d1b;
      }
    </style>
    <clipPath id="clippath">
      <rect class="st0" x="59.01" y="79.67" width="988" height="1286.21"/>
    </clipPath>
  </defs>
  <g id="base_camisa">
    <path class="st1" d="M503.02,1066.21h-145.5v-165.43h145.5v165.43ZM362.52,1061.21h135.5v-155.43h-135.5v155.43Z"/>
    <path class="st1" d="M763.06,1066.21h-145.5v-165.43h145.5v165.43ZM622.55,1061.21h135.5v-155.43h-135.5v155.43Z"/>
    <path d="M788.01,692.62l19.87-88.93,28.92,37.45,136.45-110.19,1.08-1.01-75.85-283.82c-.34-.92-.63-1.85-.83-2.81-.01-.06-.01-.13,0-.19-1.03-.39-2.05-.8-3.02-1.32-.06-.03-.11-.08-5.04-.83l-188.96-96.5v5l190.93,96.36c-3.08,3.8-4.08,3.94-11.45,17.64-9.72,18.05-23.79,49.66-35.63,97.76l-1.36,6.83c-6.32,24.35-12.28,51.42-17.85,81.18-14.38,76.84-20.79,144.52-21.14,148.32l-20.94,93.72c-29.82,88.63-6.26,187.28-6.01,188.31l66.44,257.86c-87.03,34.77-172.93,48-253.39,57.1-64.84,7.33-126.96,6.19-184.63-3.38-51.3-8.52-89.5-22.27-112.52-32.31-20.06-8.75-32.39-16.28-36.51-18.93l61.38-185.12c20.85-52.73,13.47-122.21,3.6-171.22-10.31-51.19-25.41-91.35-26.55-94.36l-12.92-57.66-2.41-28.7c-.06-.93-5.37-81.43-4.94-112.62.1-1.07.21-2.06.34-2.93.36-2.41.45-5.04.34-7.85,2.13-17.88-20.12-67.61-21.06-69.69l-66.99-159.01,185.41-99.85v-5.97l-185.74,100.31c-.04.07-.09.13-.18.17-1.73.96-3.3,2.24-5.19,2.86-.04.01-.08.01-.12.01-.03.78-.15,1.54-.39,2.28l.07.16-67.9,281.58,153.77,137.37,11.83-29.35,11.24,50.16.11.35c.16.41,15.82,41.23,26.4,93.8,9.73,48.34,17.04,116.8-3.39,168.38l-62.64,188.9,1.53,1.07c.53.37,13.37,9.27,38.65,20.32,23.25,10.16,61.84,24.09,113.62,32.72,33.06,5.51,67.57,8.27,103.2,8.27,27.03,0,54.71-1.59,82.9-4.77,81.61-9.2,168.74-22.83,257-58.27l2.05-.82-67.55-262.09c-.24-.97-23.47-98.35,5.94-185.61l.04-.12ZM820.82,506.03l26.86-135.29c12.92-49.82,25.04-90.69,46.77-120.19l74.3,277.77-131.35,105.43-28.19-36.51,11.61-91.21ZM265.11,661.21l-146.23-130.63,65.6-272.03,59.81,143.37.08.17c.27.53,24.7,48.91,26.04,77.05-.01.08-.01.16-.03.24-.36,2.17-.55,5.79-.63,10.43-2.81,30.9,6.4,132.1,7.3,141.78l-11.94,29.64Z"/>
    <path d="M502.06,931.79h-143.69v-15.03h143.69v15.03ZM361.32,928.94h137.79v-9.32h-137.79v9.32Z"/>
    <path d="M502.06,952.37h-143.69v-15.53h143.69v15.53ZM361.32,949.42h137.79v-9.63h-137.79v9.63Z"/>
    <path d="M761.16,931.78h-142.28v-15.02h142.28v15.02ZM621.82,928.94h136.4v-9.33h-136.4v9.33Z"/>
    <path d="M761.16,952.36h-142.28v-15.52h142.28v15.52ZM621.82,949.43h136.4v-9.64h-136.4v9.64Z"/>
  </g>
  
  
  
</svg>
