<?xml version="1.0" encoding="UTF-8"?>
<svg xmlns="http://www.w3.org/2000/svg" xmlns:i="http://ns.adobe.com/AdobeIllustrator/10.0/" version="1.1" viewBox="0 0 1080 1350" width="1080" height="1350">
  <!-- Generator: Adobe Illustrator 29.5.1, SVG Export Plug-In . SVG Version: 2.1.0 Build 141)  -->
  <defs>
    <style>
      .st0 {
        fill: #1d1d1b;
      }
    </style>
  </defs>
  <g id="Base_camisa">
    <g id="base_camisa">
      <g id="Base_camisa1" data-name="Base_camisa">
        <path d="M795.4,683.14l19.87-89.92,28.92,37.87,136.45-111.42,1.08-1.02-75.85-286.98c-.34-.93-.63-1.87-.83-2.84-.01-.06-.01-.13,0-.19-1.03-.39-2.05-.81-3.02-1.33-.06-.03-.11-.08-.15-.14l-197.88-100.04-.13.22h-314.87l-28,17.19-166.57,86.25c-.04.07-.09.13-.18.17-1.73.97-3.3,2.26-5.19,2.89h-.12c-.03.79-.15,1.56-.39,2.31l.07.16-67.91,284.75,153.77,138.9,11.83-29.68,11.24,50.72.11.35c.16.41,15.82,41.69,26.4,94.84,9.73,48.88,17.04,118.1-3.39,170.26l-62.64,191,1.53,1.08c.53.37,13.37,9.37,38.65,20.55,23.25,10.27,61.84,24.36,113.62,33.08,33.06,5.57,67.57,8.36,103.2,8.36,27.03,0,54.71-1.61,82.9-4.82,81.61-9.3,167.74-24.1,256-59.93l2.05-.83-66.55-264c-.24-.98-23.47-99.45,5.94-187.68l.04-.12h0ZM976.14,517l-131.35,106.6-28.19-36.92,11.61-92.23,26.86-136.8c12.93-50.38,25.04-91.7,46.77-121.53l74.3,280.86h0ZM272.5,651.38l-146.23-132.09,65.59-275.07,59.81,144.97.08.17c.27.54,24.7,49.45,26.04,77.91v.12c-.38,2.18-.58,5.88-.66,10.67-2.81,31.24,6.4,133.57,7.3,143.36l-11.94,29.97h0ZM784.57,872.19l65.44,259.72c-87.03,35.16-171.93,49.55-252.39,58.75-64.84,7.41-126.96,6.26-184.63-3.42-51.3-8.61-89.5-22.52-112.52-32.67-20.06-8.85-32.39-16.46-36.51-19.14l61.38-187.18c20.85-53.32,13.47-123.57,3.6-173.13-10.31-51.76-25.41-92.37-26.55-95.41l-12.92-58.3-2.41-29.02c-.06-.94-5.37-82.34-4.94-113.87.1-1.08.21-2.08.34-2.96.36-2.44.45-5.1.34-7.94,2.13-18.08-20.12-68.36-21.06-70.47l-66.99-160.78,193.24-100.91.03.04c1.1-.49,5.64-2.8,7.09-2.3.92.32-.86-.43,0,0l-.7-1.77,307.11-.02h0c1.67.19,4.48,2.24,4.19,1.79l.29.46,192.95,97.74c-3.08,3.84-4.08,3.98-11.45,17.84-9.72,18.25-23.79,50.21-35.63,98.85l-1.36,6.91c-6.32,24.62-12.28,51.99-17.85,82.08-14.38,77.7-20.79,146.13-21.14,149.97l-20.94,94.76c-29.82,89.62-6.26,189.37-6.01,190.41v-.02h0Z"/>
        <polygon points="544.88 333.69 392.12 132.21 394.5 130.37 544.91 328.75 700.58 128.36 702.94 130.23 544.88 333.69"/>
        <g>
          <path d="M355.94,158.63c-.44,0-.88-.2-1.18-.58l-3.5-4.5c-.51-.66-.4-1.61.25-2.13.65-.52,1.59-.4,2.11.25l3.5,4.5c.51.66.4,1.61-.25,2.13-.28.22-.6.32-.93.32Z"/>
          <path d="M519.43,368.8c-.44,0-.88-.2-1.18-.58l-6.81-8.76c-.51-.66-.4-1.61.25-2.13.65-.52,1.59-.4,2.11.25l6.81,8.76c.51.66.4,1.61-.25,2.13-.28.22-.6.32-.93.32ZM505.81,351.29c-.44,0-.88-.2-1.18-.58l-6.81-8.76c-.51-.66-.4-1.61.25-2.13.65-.52,1.59-.4,2.11.25l6.81,8.76c.51.66.4,1.61-.25,2.13-.28.22-.6.32-.93.32ZM492.18,333.77c-.44,0-.88-.2-1.18-.58l-6.81-8.76c-.51-.66-.4-1.61.25-2.13.65-.52,1.59-.4,2.11.25l6.81,8.76c.51.66.4,1.61-.25,2.13-.28.22-.6.32-.93.32ZM478.56,316.26c-.44,0-.88-.2-1.18-.58l-6.81-8.76c-.51-.66-.4-1.61.25-2.13.65-.52,1.59-.4,2.11.25l6.81,8.76c.51.66.4,1.61-.25,2.13-.28.22-.6.32-.93.32ZM464.93,298.75c-.44,0-.88-.2-1.18-.58l-6.81-8.76c-.51-.66-.4-1.61.25-2.13.65-.52,1.59-.4,2.11.25l6.81,8.76c.51.66.4,1.61-.25,2.13-.28.22-.6.32-.93.32ZM451.31,281.24c-.44,0-.88-.2-1.18-.58l-6.81-8.76c-.51-.66-.4-1.61.25-2.13.65-.52,1.59-.4,2.11.25l6.81,8.76c.51.66.4,1.61-.25,2.13-.28.22-.6.32-.93.32ZM437.69,263.72c-.44,0-.88-.2-1.18-.58l-6.81-8.76c-.51-.66-.4-1.61.25-2.13.65-.52,1.59-.4,2.11.25l6.81,8.76c.51.66.4,1.61-.25,2.13-.28.22-.6.32-.93.32ZM424.06,246.2c-.44,0-.88-.2-1.18-.58l-6.81-8.76c-.51-.66-.4-1.61.25-2.13.65-.52,1.59-.4,2.11.25l6.81,8.76c.51.66.4,1.61-.25,2.13-.28.22-.6.32-.93.32ZM410.44,228.69c-.44,0-.88-.2-1.18-.58l-6.81-8.76c-.51-.66-.4-1.61.25-2.13.65-.52,1.59-.4,2.11.25l6.81,8.76c.51.66.4,1.61-.25,2.13-.28.22-.6.32-.93.32ZM396.81,211.17c-.44,0-.88-.2-1.18-.58l-6.81-8.76c-.51-.66-.4-1.61.25-2.13.65-.52,1.59-.4,2.11.25l6.81,8.76c.51.66.4,1.61-.25,2.13-.28.22-.6.32-.93.32ZM383.19,193.66c-.44,0-.88-.2-1.18-.58l-6.81-8.76c-.51-.66-.4-1.61.25-2.13.65-.52,1.59-.4,2.11.25l6.81,8.76c.51.66.4,1.61-.25,2.13-.28.22-.6.32-.93.32ZM369.57,176.15c-.44,0-.88-.2-1.18-.58l-6.81-8.76c-.51-.66-.4-1.61.25-2.13.65-.52,1.59-.4,2.11.25l6.81,8.76c.51.66.4,1.61-.25,2.13-.28.22-.6.32-.93.32Z"/>
          <path d="M535.4,382.06h-6.39l-3.95-5.08c-.51-.66-.4-1.61.25-2.13.65-.52,1.59-.4,2.11.25l3.05,3.91h4.93c.83,0,1.5.68,1.5,1.52s-.67,1.52-1.5,1.52h0Z"/>
          <path d="M552.9,382.06h-8.75c-.83,0-1.5-.68-1.5-1.52s.67-1.52,1.5-1.52h8.75c.83,0,1.5.68,1.5,1.52s-.67,1.52-1.5,1.52Z"/>
          <path d="M568.04,382.06h-6.39c-.83,0-1.5-.68-1.5-1.52s.67-1.52,1.5-1.52h4.92l3.02-3.93c.51-.66,1.45-.78,2.1-.26.65.52.77,1.47.26,2.12l-3.92,5.11h.01Z"/>
          <path d="M577.56,368.7c-.32,0-.65-.1-.92-.32-.65-.52-.77-1.47-.26-2.12l6.79-8.84c.51-.66,1.45-.78,2.1-.26.65.52.77,1.47.26,2.12l-6.79,8.84c-.29.38-.74.59-1.19.59h.01ZM591.14,351.01c-.32,0-.65-.1-.92-.32-.65-.52-.77-1.47-.26-2.12l6.79-8.84c.51-.66,1.45-.78,2.1-.26.65.52.77,1.47.26,2.12l-6.79,8.84c-.29.38-.74.59-1.19.59h.01ZM604.71,333.34c-.32,0-.65-.1-.92-.32-.65-.52-.77-1.47-.26-2.12l6.79-8.84c.51-.66,1.45-.78,2.1-.26.65.52.77,1.47.26,2.12l-6.79,8.84c-.29.38-.74.59-1.19.59h.01ZM618.28,315.65c-.32,0-.65-.1-.92-.32-.65-.52-.77-1.47-.26-2.12l6.79-8.84c.51-.66,1.45-.78,2.1-.26.65.52.77,1.47.26,2.12l-6.79,8.84c-.29.38-.74.59-1.19.59h.01ZM631.86,297.98c-.32,0-.65-.1-.92-.31-.65-.52-.77-1.47-.26-2.12l6.79-8.84c.51-.66,1.45-.78,2.1-.27s.77,1.47.26,2.12l-6.79,8.84c-.29.38-.74.59-1.19.59h.01ZM645.43,280.29c-.32,0-.65-.1-.92-.31-.65-.52-.77-1.47-.26-2.12l6.79-8.84c.51-.66,1.45-.78,2.1-.27.65.52.77,1.47.26,2.12l-6.79,8.84c-.29.38-.74.59-1.19.59h.01ZM659.01,262.62c-.32,0-.65-.1-.92-.31-.65-.52-.77-1.47-.26-2.12l6.79-8.84c.51-.66,1.45-.78,2.1-.27.65.52.77,1.47.26,2.12l-6.79,8.84c-.29.38-.74.59-1.19.59h.01ZM672.58,244.94c-.32,0-.65-.1-.92-.31-.65-.52-.77-1.47-.26-2.12l6.79-8.84c.51-.66,1.45-.78,2.1-.27s.77,1.47.26,2.12l-6.79,8.84c-.29.38-.74.59-1.19.59h.01ZM686.15,227.25c-.32,0-.65-.1-.92-.31-.65-.52-.77-1.47-.26-2.12l6.79-8.84c.51-.66,1.45-.78,2.1-.27.65.52.77,1.47.26,2.12l-6.79,8.84c-.29.38-.74.59-1.19.59h.01ZM699.73,209.58c-.32,0-.65-.1-.92-.31-.65-.52-.77-1.47-.26-2.12l6.79-8.84c.51-.66,1.45-.78,2.1-.27.65.52.77,1.47.26,2.12l-6.79,8.84c-.29.38-.74.59-1.19.59h.01ZM713.3,191.89c-.32,0-.65-.1-.92-.31-.65-.52-.77-1.47-.26-2.12l6.79-8.84c.51-.66,1.45-.78,2.1-.27s.77,1.47.26,2.12l-6.79,8.84c-.29.38-.74.59-1.19.59h.01ZM726.87,174.22c-.32,0-.65-.1-.92-.31-.65-.52-.77-1.47-.26-2.12l6.79-8.84c.51-.66,1.45-.78,2.1-.27.65.52.77,1.47.26,2.12l-6.79,8.84c-.29.38-.74.59-1.19.59h.01Z"/>
          <path d="M740.45,156.53c-.32,0-.65-.1-.92-.31-.65-.52-.77-1.47-.26-2.12l3.47-4.52c.51-.66,1.45-.78,2.1-.27s.77,1.47.26,2.12l-3.47,4.52c-.29.38-.74.59-1.19.59h.01Z"/>
        </g>
        <path d="M226.64,328.01c-.43,0-.86-.19-1.16-.56-.53-.65-.43-1.61.21-2.13l8.74-7.26c.64-.54,1.58-.43,2.11.21.53.65.43,1.61-.21,2.13l-8.74,7.26c-.28.23-.62.34-.95.34ZM244.13,313.49c-.43,0-.86-.19-1.16-.56-.53-.65-.43-1.61.21-2.13l8.74-7.26c.64-.54,1.58-.43,2.11.21.53.65.43,1.61-.21,2.13l-8.74,7.26c-.28.23-.62.34-.95.34ZM261.62,298.97c-.43,0-.86-.19-1.16-.56-.53-.65-.43-1.61.21-2.13l8.75-7.26c.64-.54,1.59-.43,2.11.21s.43,1.61-.21,2.13l-8.75,7.26c-.28.23-.62.34-.95.34ZM279.1,284.45c-.43,0-.86-.19-1.16-.56-.53-.65-.43-1.61.21-2.13l8.75-7.26c.64-.54,1.58-.43,2.11.21.53.65.43,1.61-.21,2.13l-8.75,7.26c-.28.23-.62.34-.95.34ZM296.59,269.93c-.43,0-.86-.19-1.16-.56-.53-.65-.43-1.6.21-2.13l8.74-7.26c.64-.53,1.58-.43,2.11.21s.43,1.6-.21,2.13l-8.74,7.26c-.28.23-.62.34-.95.34h0ZM314.08,255.41c-.43,0-.86-.19-1.16-.56-.53-.65-.43-1.6.21-2.13l8.74-7.26c.64-.54,1.59-.43,2.11.21.53.65.43,1.6-.21,2.13l-8.74,7.26c-.28.23-.62.34-.95.34ZM331.57,240.89c-.43,0-.86-.19-1.16-.56-.53-.65-.43-1.61.21-2.13l8.75-7.26c.64-.54,1.58-.43,2.11.21s.43,1.61-.21,2.13l-8.75,7.26c-.28.23-.62.34-.95.34h0ZM349.06,226.37c-.43,0-.86-.19-1.16-.56-.53-.65-.43-1.61.21-2.13l8.74-7.26c.64-.54,1.58-.43,2.11.21s.43,1.61-.21,2.13l-8.74,7.26c-.28.23-.62.34-.95.34h0ZM366.55,211.85c-.43,0-.86-.19-1.16-.56-.53-.65-.43-1.61.21-2.13l8.74-7.26c.64-.54,1.58-.43,2.11.21s.43,1.61-.21,2.13l-8.74,7.26c-.28.23-.62.34-.95.34h0ZM384.04,197.33c-.43,0-.86-.19-1.16-.56-.53-.65-.43-1.61.21-2.13l8.74-7.26c.64-.54,1.58-.43,2.11.21s.43,1.61-.21,2.13l-8.74,7.26c-.28.23-.62.34-.95.34h0ZM401.53,182.81c-.43,0-.86-.19-1.16-.56-.53-.65-.43-1.61.21-2.13l8.75-7.26c.64-.53,1.58-.43,2.11.21s.43,1.61-.21,2.13l-8.75,7.26c-.28.23-.62.34-.95.34h0ZM419.03,168.28c-.43,0-.86-.18-1.15-.55-.53-.65-.45-1.59.19-2.12l.03-.02c.64-.54,1.58-.44,2.11.2s.44,1.6-.2,2.13c-.28.23-.63.35-.97.35h0Z"/>
        <path d="M242.72,350.63c-.44,0-.87-.19-1.16-.56-.52-.65-.43-1.61.22-2.13l8.77-7.23c.64-.53,1.59-.43,2.11.22.52.65.43,1.61-.22,2.13l-8.77,7.23c-.28.23-.61.34-.95.34h0ZM260.26,336.18c-.44,0-.87-.19-1.16-.56-.52-.65-.43-1.61.22-2.13l8.77-7.23c.64-.53,1.59-.43,2.11.22.52.65.43,1.61-.22,2.13l-8.77,7.23c-.28.23-.61.34-.95.34h0ZM277.8,321.72c-.44,0-.87-.19-1.16-.56-.52-.65-.43-1.61.22-2.13l8.77-7.23c.64-.53,1.59-.43,2.11.22.52.65.43,1.61-.22,2.13l-8.77,7.23c-.28.23-.61.34-.95.34h0ZM295.34,307.27c-.44,0-.87-.19-1.16-.56-.52-.65-.43-1.61.22-2.13l8.77-7.23c.64-.53,1.59-.43,2.11.21.52.65.43,1.61-.22,2.13l-8.77,7.23c-.28.23-.61.34-.95.34ZM312.88,292.81c-.44,0-.87-.19-1.16-.56-.52-.65-.43-1.61.22-2.13l8.77-7.23c.64-.53,1.59-.43,2.11.21.52.65.43,1.61-.22,2.13l-8.77,7.23c-.28.23-.61.34-.95.34ZM330.43,278.36c-.44,0-.87-.19-1.16-.56-.52-.65-.43-1.61.22-2.13l8.77-7.23c.64-.53,1.59-.43,2.11.21.52.65.43,1.61-.22,2.13l-8.77,7.23c-.28.23-.61.34-.95.34h0ZM347.97,263.9c-.44,0-.87-.19-1.16-.56-.52-.65-.43-1.61.22-2.13l8.77-7.23c.64-.53,1.59-.43,2.11.21s.43,1.61-.22,2.13l-8.77,7.23c-.28.23-.61.34-.95.34h0ZM365.51,249.46c-.44,0-.87-.19-1.16-.56-.52-.65-.43-1.61.22-2.13l8.77-7.23c.64-.53,1.59-.43,2.11.21s.43,1.61-.22,2.13l-8.77,7.23c-.28.23-.61.34-.95.34h0ZM383.05,235c-.44,0-.87-.19-1.16-.56-.52-.65-.43-1.61.22-2.13l8.77-7.23c.64-.53,1.59-.43,2.11.21s.43,1.61-.22,2.13l-8.77,7.23c-.28.23-.61.34-.95.34h0ZM400.59,220.55c-.44,0-.87-.19-1.16-.56-.52-.65-.43-1.61.22-2.13l8.77-7.23c.64-.53,1.59-.43,2.11.21s.43,1.61-.22,2.13l-8.77,7.23c-.28.23-.61.34-.95.34h0ZM418.14,206.09c-.44,0-.87-.19-1.16-.56-.52-.65-.43-1.61.22-2.13l8.77-7.23c.64-.53,1.59-.43,2.11.22.52.65.43,1.61-.22,2.13l-8.77,7.23c-.28.23-.61.34-.95.34h0Z"/>
        <path d="M253.9,377.49c-.43,0-.86-.19-1.16-.56-.53-.65-.43-1.61.21-2.13l8.75-7.25c.64-.53,1.58-.43,2.11.21.53.65.43,1.61-.21,2.13l-8.75,7.25c-.28.23-.62.34-.95.34ZM271.4,362.98c-.43,0-.86-.19-1.16-.56-.53-.65-.43-1.61.21-2.13l8.75-7.26c.64-.53,1.58-.43,2.11.21.53.65.43,1.61-.21,2.13l-8.75,7.26c-.28.23-.62.34-.95.34ZM288.89,348.47c-.43,0-.86-.19-1.16-.56-.53-.65-.43-1.61.21-2.13l8.75-7.25c.64-.53,1.58-.43,2.11.21.53.65.43,1.61-.21,2.13l-8.75,7.25c-.28.23-.62.34-.95.34ZM306.39,333.96c-.43,0-.86-.19-1.16-.56-.53-.65-.43-1.61.21-2.13l8.75-7.26c.64-.53,1.58-.43,2.11.21.53.65.43,1.61-.21,2.13l-8.75,7.26c-.28.23-.62.34-.95.34ZM323.89,319.45c-.43,0-.86-.19-1.16-.56-.53-.65-.43-1.61.21-2.13l8.75-7.25c.64-.53,1.58-.43,2.11.21.53.65.43,1.61-.21,2.13l-8.75,7.25c-.28.23-.62.34-.95.34ZM341.39,304.94c-.43,0-.86-.19-1.16-.56-.53-.65-.43-1.61.21-2.13l8.75-7.25c.64-.54,1.58-.43,2.11.21.53.65.43,1.61-.21,2.13l-8.75,7.26c-.28.23-.62.34-.95.34h0ZM358.88,290.43c-.43,0-.86-.19-1.16-.56-.53-.65-.43-1.61.21-2.13l8.75-7.26c.64-.53,1.58-.43,2.11.21.53.65.43,1.61-.21,2.13l-8.75,7.26c-.28.23-.62.34-.95.34h0ZM376.38,275.92c-.43,0-.86-.19-1.16-.56-.53-.65-.43-1.61.21-2.13l8.75-7.26c.64-.54,1.58-.43,2.11.21.53.65.43,1.61-.21,2.13l-8.75,7.26c-.28.23-.62.34-.95.34h0ZM393.88,261.41c-.43,0-.86-.19-1.16-.56-.53-.65-.43-1.61.21-2.13l8.75-7.26c.64-.54,1.58-.43,2.11.21s.43,1.61-.21,2.13l-8.75,7.26c-.28.23-.62.34-.95.34h0ZM411.37,246.9c-.43,0-.86-.19-1.16-.56-.53-.65-.43-1.61.21-2.13l8.75-7.25c.64-.54,1.59-.43,2.11.21.53.65.43,1.61-.21,2.13l-8.75,7.25c-.28.23-.62.34-.95.34h0ZM428.87,232.39c-.43,0-.86-.19-1.16-.56-.53-.65-.43-1.61.21-2.13l8.75-7.25c.64-.54,1.58-.43,2.11.21s.43,1.61-.21,2.13l-8.75,7.25c-.28.23-.62.34-.95.34h0ZM446.37,217.88c-.43,0-.86-.19-1.16-.56-.53-.65-.43-1.61.21-2.13l4.94-4.1c.64-.54,1.58-.43,2.11.21s.43,1.61-.21,2.13l-4.94,4.1c-.28.23-.62.34-.95.34h0Z"/>
        <path d="M865.55,307.75c-.33,0-.67-.11-.95-.34l-8.74-7.26c-.64-.54-.73-1.49-.21-2.13.53-.65,1.47-.74,2.11-.21l8.74,7.26c.64.54.73,1.49.21,2.13-.3.36-.73.56-1.16.56ZM848.06,293.23c-.33,0-.67-.11-.95-.34l-8.74-7.26c-.64-.54-.73-1.49-.21-2.13.53-.65,1.47-.74,2.11-.21l8.74,7.26c.64.54.73,1.49.21,2.13-.3.36-.73.56-1.16.56ZM830.58,278.7c-.33,0-.67-.11-.95-.34l-8.74-7.26c-.64-.54-.73-1.49-.21-2.13.53-.65,1.47-.74,2.11-.21l8.74,7.26c.64.54.73,1.49.21,2.13-.3.36-.73.56-1.16.56ZM813.09,264.18c-.33,0-.67-.11-.95-.34l-8.74-7.26c-.64-.54-.73-1.49-.21-2.13.53-.65,1.47-.74,2.11-.21l8.74,7.26c.64.54.73,1.49.21,2.13-.3.36-.73.56-1.16.56ZM795.6,249.66c-.33,0-.67-.11-.95-.34l-8.74-7.26c-.64-.54-.73-1.49-.21-2.13.53-.65,1.47-.74,2.11-.21l8.74,7.26c.64.54.73,1.49.21,2.13-.3.36-.73.56-1.16.56ZM778.12,235.14c-.33,0-.67-.11-.95-.34l-8.74-7.26c-.64-.54-.73-1.49-.21-2.13.53-.65,1.47-.74,2.11-.21l8.74,7.26c.64.54.73,1.49.21,2.13-.3.36-.73.56-1.16.56ZM760.63,220.61c-.33,0-.67-.11-.95-.34l-8.74-7.26c-.64-.54-.73-1.49-.21-2.13.53-.65,1.47-.74,2.11-.21l8.74,7.26c.64.54.73,1.49.21,2.13-.3.36-.73.56-1.16.56ZM743.14,206.09c-.33,0-.67-.11-.95-.34l-8.74-7.26c-.64-.54-.73-1.49-.21-2.13.53-.65,1.47-.74,2.11-.21l8.74,7.26c.64.54.73,1.49.21,2.13-.3.36-.73.56-1.16.56ZM725.66,191.56c-.33,0-.67-.11-.95-.34l-8.74-7.26c-.64-.54-.73-1.49-.21-2.13s1.47-.74,2.11-.21l8.74,7.26c.64.54.73,1.49.21,2.13-.3.36-.73.56-1.16.56ZM708.17,177.04c-.33,0-.67-.11-.95-.34l-8.74-7.26c-.64-.54-.73-1.49-.21-2.13.53-.65,1.47-.74,2.11-.21l8.74,7.26c.64.54.73,1.49.21,2.13-.3.36-.73.56-1.16.56ZM690.69,162.52c-.33,0-.67-.11-.95-.34l-7.82-6.49c-.64-.54-.73-1.49-.21-2.13.53-.65,1.47-.74,2.11-.21l7.82,6.49c.64.54.73,1.49.21,2.13-.3.36-.73.56-1.16.56Z"/>
        <path d="M855.76,338.62c-.34,0-.68-.11-.96-.35l-8.7-7.31c-.64-.54-.72-1.5-.19-2.13.53-.65,1.47-.73,2.11-.19l8.7,7.31c.64.54.72,1.5.19,2.13-.3.36-.72.55-1.15.55h0ZM838.36,323.99c-.34,0-.68-.11-.96-.35l-8.7-7.31c-.64-.54-.72-1.5-.19-2.13.53-.65,1.47-.73,2.11-.19l8.7,7.31c.64.54.72,1.5.19,2.13-.3.36-.72.55-1.15.55h0ZM820.96,309.36c-.34,0-.68-.11-.96-.35l-8.7-7.31c-.64-.54-.72-1.5-.19-2.13.53-.65,1.47-.73,2.11-.19l8.7,7.31c.64.54.72,1.5.19,2.13-.3.36-.72.55-1.15.55h0ZM803.56,294.73c-.34,0-.68-.11-.96-.35l-8.7-7.31c-.64-.54-.72-1.5-.19-2.13.53-.65,1.47-.73,2.11-.19l8.7,7.31c.64.54.72,1.5.19,2.13-.3.36-.72.55-1.15.55h0ZM786.16,280.1c-.34,0-.68-.11-.96-.35l-8.7-7.31c-.64-.54-.72-1.5-.19-2.13.53-.65,1.48-.73,2.11-.19l8.7,7.31c.64.54.72,1.5.19,2.13-.3.36-.72.55-1.15.55h0ZM768.76,265.47c-.34,0-.68-.11-.96-.35l-8.7-7.31c-.64-.54-.72-1.5-.19-2.13s1.47-.73,2.11-.19l8.7,7.31c.64.54.72,1.5.19,2.13-.3.36-.72.55-1.15.55h0ZM751.36,250.85c-.34,0-.68-.11-.96-.35l-8.7-7.31c-.64-.54-.72-1.5-.19-2.13.53-.65,1.47-.73,2.11-.19l8.7,7.31c.64.54.72,1.5.19,2.13-.3.36-.72.55-1.15.55h0ZM733.96,236.22c-.34,0-.68-.11-.96-.35l-8.7-7.31c-.64-.54-.72-1.5-.19-2.13.53-.65,1.47-.73,2.11-.19l8.7,7.31c.64.54.72,1.5.19,2.13-.3.36-.72.55-1.15.55h0ZM716.55,221.6c-.34,0-.68-.11-.96-.35l-8.7-7.31c-.64-.54-.72-1.5-.19-2.13.53-.65,1.47-.73,2.11-.19l8.7,7.31c.64.54.72,1.5.19,2.13-.3.36-.72.55-1.15.55h0ZM699.15,206.97c-.34,0-.68-.11-.96-.35l-8.7-7.31c-.64-.54-.72-1.5-.19-2.13.53-.65,1.47-.73,2.11-.19l8.7,7.31c.64.54.72,1.5.19,2.13-.3.36-.72.55-1.15.55h0ZM681.75,192.34c-.34,0-.68-.11-.96-.35l-8.7-7.31c-.64-.54-.72-1.5-.19-2.13.53-.65,1.47-.73,2.11-.19l8.7,7.31c.64.54.72,1.5.19,2.13-.3.36-.72.55-1.15.55h0Z"/>
        <path d="M848.07,367.6c-.34,0-.68-.11-.96-.35l-8.7-7.32c-.64-.54-.72-1.5-.19-2.13.53-.65,1.47-.73,2.11-.19l8.7,7.32c.64.54.72,1.5.19,2.13-.3.36-.72.55-1.15.55h0ZM830.68,352.96c-.34,0-.68-.11-.96-.35l-8.7-7.32c-.64-.54-.72-1.5-.19-2.13.53-.65,1.47-.73,2.11-.19l8.7,7.32c.64.54.72,1.5.19,2.13-.3.36-.72.55-1.15.55h0ZM813.28,338.32c-.34,0-.68-.11-.96-.35l-8.7-7.32c-.64-.54-.72-1.5-.19-2.13.53-.65,1.47-.73,2.11-.19l8.7,7.32c.64.54.72,1.5.19,2.13-.3.36-.72.55-1.15.55h0ZM795.89,323.68c-.34,0-.68-.11-.96-.35l-8.7-7.32c-.64-.54-.72-1.5-.19-2.13.53-.65,1.47-.73,2.11-.19l8.7,7.32c.64.54.72,1.5.19,2.13-.3.36-.72.55-1.15.55h0ZM778.49,309.05c-.34,0-.68-.11-.96-.35l-8.7-7.32c-.64-.54-.72-1.5-.19-2.13.53-.65,1.47-.73,2.11-.19l8.7,7.32c.64.54.72,1.5.19,2.13-.3.36-.72.55-1.15.55h0ZM761.1,294.42c-.34,0-.68-.11-.96-.35l-8.7-7.32c-.64-.54-.72-1.5-.19-2.13.53-.65,1.47-.73,2.11-.19l8.7,7.32c.64.54.72,1.5.19,2.13-.3.36-.72.55-1.15.55h0ZM743.71,279.78c-.34,0-.68-.11-.96-.35l-8.7-7.32c-.64-.54-.72-1.5-.19-2.13.53-.65,1.48-.73,2.11-.19l8.7,7.32c.64.54.72,1.5.19,2.13-.3.36-.72.55-1.15.55h0ZM726.31,265.15c-.34,0-.68-.11-.96-.35l-8.7-7.32c-.64-.54-.72-1.5-.19-2.13.53-.65,1.48-.73,2.11-.19l8.7,7.32c.64.54.72,1.5.19,2.13-.3.36-.72.55-1.15.55h0ZM708.92,250.51c-.34,0-.68-.11-.96-.35l-8.7-7.32c-.64-.54-.72-1.5-.19-2.13.53-.65,1.48-.73,2.11-.19l8.7,7.32c.64.54.72,1.5.19,2.13-.3.36-.72.55-1.15.55h0ZM691.52,235.88c-.34,0-.68-.11-.96-.35l-8.7-7.32c-.64-.54-.72-1.5-.19-2.13.53-.65,1.47-.73,2.11-.19l8.7,7.32c.64.54.72,1.5.19,2.13-.3.36-.72.55-1.15.55h0ZM674.13,221.23c-.34,0-.68-.11-.96-.35l-8.7-7.32c-.64-.54-.72-1.5-.19-2.13.53-.65,1.47-.73,2.11-.19l8.7,7.32c.64.54.72,1.5.19,2.13-.3.36-.72.55-1.15.55h0ZM656.74,206.6c-.34,0-.68-.11-.96-.35l-5.72-4.81c-.64-.54-.72-1.5-.19-2.13.53-.65,1.47-.73,2.11-.19l5.72,4.81c.64.54.72,1.5.19,2.13-.3.36-.72.55-1.15.55h0Z"/>
      </g>
    </g>
  </g>
  
  
</svg>
