<?xml version="1.0" encoding="UTF-8"?>
<svg xmlns="http://www.w3.org/2000/svg" xmlns:i="http://ns.adobe.com/AdobeIllustrator/10.0/" version="1.1" viewBox="0 0 1080 1350" width="1080" height="1350">
  <!-- Generator: Adobe Illustrator 29.5.1, SVG Export Plug-In . SVG Version: 2.1.0 Build 141)  -->
  <defs>
    <style>
      .st0 {
        fill: #1d1d1b;
      }
    </style>
  </defs>
  <g id="Base_camisa">
    <g id="Base_camisa1" data-name="Base_camisa">
      <path d="M797.67,692.06l19.87-88.93,28.92,37.45,136.45-110.19,1.08-1.01-75.85-283.82c-.34-.92-.63-1.85-.83-2.81-.01-.06-.01-.13,0-.19-1.03-.39-2.05-.8-3.02-1.32-.06-.03-.11-.08-.15-.14l-195.18-97.6c.04.62-.02,1.29-.23,1.98-.53,1.81-1.26,3.24-2.15,4.38.2.21.39.42.56.66l1.13-1.93,192.95,96.66c-3.08,3.8-4.08,3.94-11.45,17.64-9.72,18.05-23.79,49.66-35.63,97.76l-1.36,6.83c-6.32,24.35-12.28,51.42-17.85,81.18-14.38,76.84-20.79,144.52-21.14,148.32l-20.94,93.72c-29.82,88.63-6.26,187.28-6.01,188.31l65.44,256.86c-87.03,34.77-171.93,49-252.39,58.1-64.84,7.33-126.96,6.19-184.63-3.38-51.3-8.52-89.5-22.27-112.52-32.31-20.06-8.75-32.39-16.28-36.51-18.93l61.38-185.12c20.85-52.73,13.47-122.21,3.6-171.22-10.31-51.19-25.41-91.35-26.55-94.36l-12.92-57.66-2.41-28.7c-.06-.93-5.37-81.43-4.94-112.62.1-1.07.21-2.06.34-2.93.36-2.41.45-5.04.34-7.85,2.13-17.88-20.12-67.61-21.06-69.69l-66.99-159.01,191.62-98.97c-.7-2.02-1.31-4.07-1.79-6.16l-23.58,14.32-166.57,85.3c-.04.07-.09.13-.18.17-1.73.96-3.3,2.24-5.19,2.86-.04.01-.08.01-.12.01-.03.78-.15,1.54-.39,2.28l.07.16-67.9,281.58,153.77,137.37,11.83-29.35,11.24,50.16.11.35c.16.41,15.82,41.23,26.4,93.8,9.73,48.34,17.04,116.8-3.39,168.38l-62.64,188.9,1.53,1.07c.53.37,13.37,9.27,38.65,20.32,23.25,10.16,61.84,24.09,113.62,32.72,33.06,5.51,67.57,8.27,103.2,8.27,27.03,0,54.71-1.59,82.9-4.77,81.61-9.2,167.74-23.83,256-59.27l2.05-.82-66.55-261.09c-.24-.97-23.47-98.35,5.94-185.61l.04-.12h-.02ZM830.48,505.46l26.86-135.29c12.93-49.82,25.04-90.69,46.77-120.19l74.3,277.77-131.35,105.43-28.19-36.51,11.61-91.21ZM274.77,660.65l-146.23-130.63,65.6-272.03,59.81,143.37.08.17c.27.53,24.7,48.91,26.04,77.05v.12c-.37,2.16-.57,5.82-.65,10.55-2.81,30.9,6.4,132.1,7.3,141.78l-11.94,29.64v-.02Z"/>
      <rect x="264.24" y="415.39" width="577.02" height="4"/>
      <path d="M548.8,418.59l-55.23-275.13c-10.4.05-48.72-.76-60.87-14.74-3.3-3.79-4.54-8.22-3.71-13.16.65-3.85,3.3-7.29,7.88-10.22,6.63-4.24,29.24-14.14,95.84-14.42,41.97-.17,83.8,3.72,106.62,9.92,15.78,4.29,23.23,10.2,22.14,17.57-2.12,14.24-38.17,25.08-57.55,25.31-5.3,16.95-33.74,162.51-52.23,259.8l-2.87,15.08h-.02ZM498.46,137.36l50.18,249.98c4.44-23.21,13.4-69.89,22.49-116.13,7.49-38.09,13.6-68.43,18.16-90.19,2.71-12.94,4.9-22.95,6.51-29.77,2.76-11.7,3.32-13.65,6.27-13.55,20.14.61,52.16-11.47,53.45-20.18.54-3.65-6.1-7.72-17.78-10.89-45.62-12.41-168.62-14.81-197.65,3.76-3.09,1.98-4.84,4.05-5.2,6.17-.53,3.13.23,5.82,2.32,8.23,9.92,11.41,45.75,12.99,58.71,12.64l2.53-.07h.01Z"/>
      <path d="M611.87,192.82c-10.12,0-21.12-.93-21.56-.98l1.4-5.94c.67.06,70.36,6.33,100.73-20.65,9.63-8.56,14.67-19.7,14.97-33.11.26-11.77-4.27-22.36-13.49-31.46-24.34-24.04-81.03-36.92-151.63-34.46l-.21-6c73.3-2.56,130.18,10.63,156.06,36.19,10.44,10.31,15.57,22.37,15.27,35.86-.34,15.15-6.06,27.75-17,37.47-13.65,12.12-34.98,19.57-63.4,22.14-7.84.71-15.09.93-21.14.93h0Z"/>
      <path d="M488.06,193.77c-6.89,0-15.58-.27-25.07-1.21-29.98-2.96-52.3-10.86-66.33-23.48-10.77-9.69-16.39-22.07-16.72-36.8-.31-13.9,4.9-26.25,15.49-36.71,25.27-24.96,80.8-37.85,152.34-35.35l-.21,6c-69.9-2.44-123.81,9.81-147.91,33.62-9.37,9.26-13.98,20.12-13.71,32.3.29,13,5.25,23.93,14.73,32.47,31.3,28.18,101.78,22.72,102.49,22.66l.5,5.98c-.43.04-6.42.52-15.59.52h-.01Z"/>
    </g>
  </g>
  
  
</svg>
