<?xml version="1.0" encoding="UTF-8"?>
<svg xmlns="http://www.w3.org/2000/svg" xmlns:xlink="http://www.w3.org/1999/xlink" xmlns:i="http://ns.adobe.com/AdobeIllustrator/10.0/" version="1.1" viewBox="0 0 1080 1350" width="1080" height="1350">
  <!-- Generator: Adobe Illustrator 29.5.1, SVG Export Plug-In . SVG Version: 2.1.0 Build 141)  -->
  <defs>
    <style>
      .st0, .st1 {
        fill: none;
      }

      .st1 {
        stroke: #1d1d1b;
        stroke-dasharray: 7;
        stroke-linecap: round;
        stroke-miterlimit: 10;
        stroke-width: 2px;
      }

      .st2 {
        fill: #1d1d1b;
      }
    </style>
    <clipPath id="clippath">
      <rect class="st0" x="63.5" y="75.61" width="988" height="1286.21"/>
    </clipPath>
  </defs>
  <g id="base_camisa">
    <g id="Base_camisa">
      <g>
        <rect x="258.74" y="448.69" width="567.41" height="3.26"/>
        <path d="M620.8,450.77l-5-.14c1.03-36.89-13.95-85.73-14.1-86.22-10.64-38.83-34.64-62.5-52.9-75.53-19.87-14.18-37.48-19.22-37.65-19.27-41.39-12.69-96.71-36.47-125.5-77.78-17.45-25.04-16.86-44.49-16.83-45.31l.1-2.4,322.89-.23.61,2.96c-3.5,37.59-28.85,74.55-71.61,106.88-27.09,20.48-53.76,33.2-61.64,36.77,17.58,14.32,37.74,37.46,47.34,72.51.61,1.95,15.35,50.03,14.3,87.76h-.01ZM373.9,149.12c.45,5.79,2.9,21.43,16.11,40.23,28.06,39.93,82.13,63.08,122.54,75.47.69.19,18.42,5.25,38.99,19.88,1.14.81,2.31,1.67,3.49,2.56l-.14-.34c.31-.13,31.36-13.31,62.99-37.24,28.4-21.49,62.99-56.69,68.36-101.03l-312.32.47h-.02Z"/>
        <path class="st1" d="M572.63,292.02s128.62-54.52,130.02-146.8"/>
        <path class="st1" d="M608.28,448.6c1.05-37.75-15.73-80.74-15.73-80.74-20.97-76.54-92.27-96.47-92.27-96.47-143.65-44.04-140.5-120.58-140.5-120.58"/>
        <path d="M784.19,699.26l19.87-88.93,28.92,37.45,136.45-110.19,1.08-1.01-75.85-283.82c-.34-.92-.63-1.85-.83-2.81-.01-.06-.01-.13,0-.19-1.03-.39-2.05-.8-3.02-1.32-.06-.03-.11-.08-.15-.14l-188.9-104.32h-11.72l-.24,2.36,4.46-.04,193.49,106.17c-3.08,3.8-4.08,3.94-11.45,17.64-9.72,18.05-23.79,49.66-35.63,97.76l-1.36,6.83c-6.32,24.35-12.28,51.42-17.85,81.18-14.38,76.84-20.79,144.52-21.14,148.32l-20.94,93.72c-29.82,88.63-6.26,187.28-6.01,188.31l65.44,256.86c-87.03,34.77-171.93,49-252.39,58.1-64.84,7.33-126.96,6.19-184.63-3.38-51.3-8.52-89.5-22.27-112.52-32.31-20.06-8.75-32.39-16.28-36.51-18.93l61.38-185.12c20.85-52.73,13.47-122.21,3.6-171.22-10.31-51.19-25.41-91.35-26.55-94.36l-12.92-57.66-2.41-28.7c-.06-.93-5.37-81.43-4.94-112.62.1-1.07.21-2.06.34-2.93.36-2.41.45-5.04.34-7.85,2.13-17.88-20.12-67.61-21.06-69.69l-66.99-159.01s198.86-111.87,198.96-112.4c.06-.31,0-.58-.1-.82l-13.48-.06-185.71,107.77c-.04.07-.09.13-.18.17-1.73.96-3.3,2.24-5.19,2.86-.04,0-.08,0-.12,0-.03.78-.15,1.54-.39,2.28l.07.16-67.91,281.59,153.77,137.37,11.83-29.35,11.24,50.16.11.35c.16.41,15.82,41.23,26.4,93.8,9.73,48.34,17.04,116.8-3.39,168.38l-62.64,188.9,1.53,1.07c.53.37,13.37,9.27,38.65,20.32,23.25,10.16,61.84,24.09,113.62,32.72,33.06,5.51,67.57,8.27,103.2,8.27,27.03,0,54.71-1.59,82.9-4.77,81.61-9.2,167.74-23.83,256-59.27l2.05-.82-66.55-261.09c-.24-.97-23.47-98.35,5.94-185.61l.04-.12h0ZM816.99,512.66l26.86-135.29c12.93-49.82,25.04-90.69,46.77-120.19l74.3,277.77-131.35,105.43-28.19-36.51,11.61-91.21h0ZM261.29,667.85l-146.24-130.63,65.6-272.03,59.81,143.37.08.17c.27.53,24.7,48.91,26.04,77.05v.12c-.37,2.16-.57,5.82-.65,10.55-2.81,30.9,6.4,132.1,7.3,141.78l-11.94,29.64v-.02Z"/>
      </g>
    </g>
  </g>
  
  
</svg>
