<?xml version="1.0" encoding="UTF-8"?>
<svg id="Base_camisa" xmlns="http://www.w3.org/2000/svg" xmlns:i="http://ns.adobe.com/AdobeIllustrator/10.0/" version="1.1" viewBox="0 0 1082 1350">
  <!-- Generator: Adobe Illustrator 30.3.0, SVG Export Plug-In . SVG Version: 2.1.3 Build 182)  -->
  <g id="Base_camisa1" data-name="Base_camisa">
    <path d="M795.4,683.14l19.87-89.92,28.92,37.87,136.45-111.42,1.08-1.02-75.85-286.98c-.34-.93-.63-1.87-.83-2.84-.01-.06-.01-.13,0-.19-1.03-.39-2.05-.81-3.02-1.33-.06-.03-.11-.08-.15-.14l-197.88-100.04-.13.22h-314.87l-28,17.19-166.57,86.25c-.04.07-.09.13-.18.17-1.73.97-3.3,2.26-5.19,2.89h-.12c-.03.79-.15,1.56-.39,2.31l.07.16-67.91,284.75,153.77,138.9,11.83-29.68,11.24,50.72.11.35c.16.41,15.82,41.69,26.4,94.84,9.73,48.88,17.04,118.1-3.39,170.26l-62.64,191,1.53,1.08c.53.37,13.37,9.37,38.65,20.55,23.25,10.27,61.84,24.36,113.62,33.08,33.06,5.57,67.57,8.36,103.2,8.36,27.03,0,54.71-1.61,82.9-4.82,81.61-9.3,167.74-24.1,256-59.93l2.05-.83-66.55-264c-.24-.98-23.47-99.45,5.94-187.68l.04-.12h0ZM976.14,517l-131.35,106.6-28.19-36.92,11.61-92.23,26.86-136.8c12.93-50.38,25.04-91.7,46.77-121.53l74.3,280.86h0ZM272.5,651.38l-146.23-132.09,65.59-275.07,59.81,144.97.08.17c.27.54,24.7,49.45,26.04,77.91v.12c-.38,2.18-.58,5.88-.66,10.67-2.81,31.24,6.4,133.57,7.3,143.36l-11.94,29.97h0ZM784.57,872.19l65.44,259.72c-87.03,35.16-171.93,49.55-252.39,58.75-64.84,7.41-126.96,6.26-184.63-3.42-51.3-8.61-89.5-22.52-112.52-32.67-20.06-8.85-32.39-16.46-36.51-19.14l61.38-187.18c20.85-53.32,13.47-123.57,3.6-173.13-10.31-51.76-25.41-92.37-26.55-95.41l-12.92-58.3-2.41-29.02c-.06-.94-5.37-82.34-4.94-113.87.1-1.08.21-2.08.34-2.96.36-2.44.45-5.1.34-7.94,2.13-18.08-20.12-68.36-21.06-70.47l-66.99-160.78,193.24-100.91.03.04c1.1-.49,5.64-2.8,7.09-2.3.92.32-.86-.43,0,0l-.7-1.77,307.11-.02h0c1.67.19,4.48,2.24,4.19,1.79l.29.46,192.95,97.74c-3.08,3.84-4.08,3.98-11.45,17.84-9.72,18.25-23.79,50.21-35.63,98.85l-1.36,6.91c-6.32,24.62-12.28,51.99-17.85,82.08-14.38,77.7-20.79,146.13-21.14,149.97l-20.94,94.76c-29.82,89.62-6.26,189.37-6.01,190.41v-.02h0Z"/>
  </g>
  <line x1="271.1911" y1="574.0776" x2="806.8476" y2="574.0776" fill="none" stroke="#000" stroke-miterlimit="10" stroke-width="5"/>
  <g>
    <path d="M374.5508,185.2224h-1.1573c-.0198.015-.0368.031-.057.0459-1.0862.8025-2.3641,1.2445-3.6399,1.678l255.2014,386.0107h5.9933L374.5508,185.2224Z"/>
    <path d="M344.2024,196.5481c-.0261.0031-.0515.0107-.0776.0128-.2083.017-.4155.0424-.6229.066-1.5502.2312-3.0638.6372-4.5817,1.0222l251.7604,375.3079h6.0206l-252.4988-376.4089Z"/>
  </g>
  <g>
    <path d="M522.9951,411.3076l169.9766-232.475c-.5089-.3069-1.0182-.6129-1.5406-.8942h-4.0001l-167.9291,229.675v3.6942h3.4932Z"/>
    <path d="M657.95,171.1731l-153.4363,212.8359v4.606h2.8433l156.6151-217.2446c-2.0059-.1167-4.0145-.1771-6.022-.1973Z"/>
  </g>

</svg>