<?xml version="1.0" encoding="UTF-8"?>
<svg xmlns="http://www.w3.org/2000/svg" xmlns:i="http://ns.adobe.com/AdobeIllustrator/10.0/" version="1.1" viewBox="0 0 1080 1350" width="1080" height="1350">
  <!-- Generator: Adobe Illustrator 29.5.1, SVG Export Plug-In . SVG Version: 2.1.0 Build 141)  -->
  <defs>
    <style>
      .st0 {
        fill: #1d1d1b;
      }
    </style>
  </defs>
  <g id="base_camisa">
    <g id="Base_camisa">
      <g>
        <path d="M782.99,695.55l19.87-88.93,28.92,37.45,136.45-110.19,1.08-1.01-75.85-283.82c-.34-.92-.63-1.85-.83-2.81-.01-.06-.01-.13,0-.19-1.03-.39-2.05-.8-3.02-1.32-.06-.03-.11-.08-.15-.14l-196.94-98.48c-.17,2.02-.48,4.05-.54,6.07.37.29.69.63.97,1l.65-1.1,192.95,96.66c-3.08,3.8-4.08,3.94-11.45,17.64-9.72,18.05-23.79,49.66-35.63,97.76l-1.36,6.83c-6.32,24.35-12.28,51.42-17.85,81.18-14.38,76.84-20.79,144.52-21.14,148.32l-20.94,93.72c-29.82,88.63-6.26,187.28-6.01,188.31l65.44,256.86c-87.03,34.77-171.93,49-252.39,58.1-64.84,7.33-126.96,6.19-184.63-3.38-51.3-8.52-89.5-22.27-112.52-32.31-20.06-8.75-32.39-16.28-36.51-18.93l61.38-185.12c20.85-52.73,13.47-122.21,3.6-171.22-10.31-51.19-25.41-91.35-26.55-94.36l-12.92-57.66-2.41-28.7c-.06-.93-5.37-81.43-4.94-112.62.1-1.07.21-2.06.34-2.93.36-2.41.45-5.04.34-7.85,2.13-17.88-20.12-67.61-21.06-69.69l-66.99-159.01s195.02-103.66,195.11-104.19c.36-2-3.2-2.24-3.2-4.25l-192.24,102.93c-.04.07-.09.13-.18.17-1.73.96-3.3,2.24-5.19,2.86-.04,0-.08,0-.12,0-.03.78-.15,1.54-.39,2.28l.07.16-67.9,281.58,153.77,137.37,11.83-29.35,11.24,50.16.11.35c.16.41,15.82,41.23,26.4,93.8,9.73,48.34,17.04,116.8-3.39,168.38l-62.64,188.9,1.53,1.07c.53.37,13.37,9.27,38.65,20.32,23.25,10.16,61.84,24.09,113.62,32.72,33.06,5.51,67.57,8.27,103.2,8.27,27.03,0,54.71-1.59,82.9-4.77,81.61-9.2,167.74-23.83,256-59.27l2.05-.82-66.55-261.09c-.24-.97-23.47-98.35,5.94-185.61l.04-.12h-.02ZM815.8,508.95l26.86-135.29c12.93-49.82,25.04-90.69,46.77-120.19l74.3,277.77-131.35,105.43-28.19-36.51,11.61-91.21h0ZM260.09,664.14l-146.23-130.63,65.6-272.04,59.81,143.37.08.17c.27.53,24.7,48.91,26.04,77.05v.12c-.37,2.16-.57,5.82-.65,10.55-2.81,30.9,6.4,132.1,7.3,141.78l-11.94,29.64h-.01Z"/>
        <rect x="253.58" y="418.88" width="573" height="4"/>
      </g>
      <path d="M562.92,422.65l-190-276.7,19.4-11.13h287.02l17.19,14.32-167.05,215.96,37.57,54.72-4.12,2.83h0ZM380.11,147.59l146.39,213.18,163.12-210.88-12.09-10.08h-283.87l-13.54,7.77h0Z"/>
      <path d="M517.27,300.13l-118.96-165.38-5.99.06-3.73,2.15,121.03,167.9c.56,1.03,3.56,6.93,1.86,12.47-1.07,3.48-3.93,6.33-8.51,8.48l-1.81.85,3.82,8.15,1.81-.85c6.99-3.28,11.47-8,13.31-14.03,3.03-9.93-2.58-19.42-2.81-19.8h-.02Z"/>
      <path d="M547.03,313.63c-1.35-5.63,2.02-11.33,2.64-12.32l135.44-161.89-5.78-4.6-1.96-.07-135.05,161.35c-.26.37-6.45,9.48-4.06,19.58,1.45,6.13,5.62,11.13,12.39,14.84l1.75.96,4.33-7.89-1.75-.96c-4.43-2.43-7.11-5.46-7.96-9h.01Z"/>
    </g>
  </g>
  
  
</svg>
