<?xml version="1.0" encoding="UTF-8"?>
<svg xmlns="http://www.w3.org/2000/svg" xmlns:i="http://ns.adobe.com/AdobeIllustrator/10.0/" version="1.1" viewBox="0 0 1080 1350" width="1080" height="1350">
  <!-- Generator: Adobe Illustrator 29.5.1, SVG Export Plug-In . SVG Version: 2.1.0 Build 141)  -->
  <defs>
    <style>
      .st0 {
        fill: #1d1d1b;
      }

      .st1 {
        fill: #1d1d1b;
      }
    </style>
  </defs>
  <g id="base_camisa">
    <g id="Base_camisa">
      <path class="st0" d="M798.25,683.52l19.96-90.23,29.05,38,137.05-111.8,1.08-1.02-76.18-287.96c-.34-.93-.63-1.88-.83-2.85-.01-.06-.01-.13,0-.19-1.03-.4-2.06-.81-3.03-1.34-.06-.03-.11-.08-.15-.14l-198.74-100.38-.13.22h-316.24l-28.12,17.25-167.3,86.54c-.04.07-.09.13-.18.17-1.74.97-3.31,2.27-5.21,2.9-.04.01-.08.01-.12.01-.03.79-.15,1.56-.39,2.31l.07.16-68.2,285.69,154.44,139.37,11.88-29.78,11.29,50.89.11.36c.16.42,15.89,41.83,26.52,95.17,9.77,49.04,17.11,118.5-3.4,170.84l-62.91,191.65,1.54,1.09c.53.38,13.43,9.41,38.82,20.62,23.35,10.31,62.11,24.44,114.12,33.2,33.2,5.59,67.86,8.39,103.65,8.39,27.15,0,54.95-1.61,83.26-4.84,81.97-9.33,168.47-24.18,257.12-60.13l2.06-.83-66.84-264.9c-.24-.98-23.57-99.78,5.97-188.32l.04-.12h0ZM979.79,516.81l-131.92,106.97-28.31-37.04,11.66-92.54,26.98-137.26c12.99-50.55,25.15-92.01,46.97-121.94l74.62,281.82h0ZM273.07,651.65l-146.87-132.53,65.89-276.01,60.07,145.46.08.17c.27.54,24.81,49.62,26.15,78.17v.12c-.38,2.19-.58,5.9-.66,10.7-2.82,31.35,6.43,134.03,7.33,143.85l-11.99,30.07h0ZM787.39,873.21l65.73,260.6c-87.41,35.28-172.68,49.71-253.49,58.95-65.12,7.44-127.51,6.28-185.44-3.43-51.52-8.64-89.89-22.59-113.01-32.78-20.15-8.88-32.53-16.52-36.67-19.21l61.65-187.82c20.94-53.5,13.53-123.99,3.62-173.72-10.35-51.94-25.52-92.68-26.67-95.74l-12.98-58.5-2.42-29.12c-.06-.94-5.39-82.62-4.96-114.26.1-1.09.21-2.09.34-2.97.36-2.45.45-5.11.34-7.96,2.14-18.14-20.21-68.6-21.15-70.71l-67.28-161.33,194.08-101.26.03.04c1.1-.49,2.42-.58,3.88-.07.92.32,1.81.72,2.67,1.16l-3.13-5.19h311.44l-.96,1.66c1.68.19,3.33,1.13,4.33,2.55l1.13-1.96,193.79,98.07c-3.09,3.86-4.1,4-11.5,17.9-9.76,18.31-23.89,50.38-35.79,99.19l-1.37,6.93c-6.35,24.71-12.33,52.17-17.93,82.36-14.44,77.96-20.88,146.63-21.23,150.48l-21.03,95.09c-29.95,89.92-6.29,190.01-6.04,191.06h.01Z"/>
      <path class="st0" d="M545.31,413.08c-3.01-68.68-38.73-112.63-103.57-169.69-33.07-29.11-44.67-59.41-48.58-79.71-4.26-22.13-.64-37.22-.49-37.85l6.1,1.44-3.05-.72,3.05.72c-.03.14-3.48,14.69.62,35.6,3.77,19.29,14.9,48.11,46.55,75.96,66.12,58.19,102.55,103.15,105.65,173.99l-6.27.26h-.01Z"/>
      <path class="st0" d="M553.23,413.08l-6.27-.26c3.1-70.84,39.52-115.8,105.65-173.99,31.65-27.85,42.78-56.67,46.55-75.96,4.09-20.91.65-35.46.62-35.6l6.11-1.44c.16.63,3.77,15.73-.49,37.85-3.91,20.29-15.51,50.6-48.58,79.71-64.85,57.07-100.57,101.01-103.57,169.69h-.02Z"/>
      <rect class="st0" x="266.53" y="408.89" width="575.5" height="4.06"/>
    </g>
  </g>
  
  
</svg>
