<?xml version="1.0" encoding="UTF-8"?>
<svg id="base_camisa" xmlns="http://www.w3.org/2000/svg" xmlns:i="http://ns.adobe.com/AdobeIllustrator/10.0/" version="1.1" viewBox="0 0 1080 1350" width="1080" height="1350">
  <!-- Generator: Adobe Illustrator 29.5.1, SVG Export Plug-In . SVG Version: 2.1.0 Build 141)  -->
  <path d="M784.19,698.09l19.87-88.38,28.92,37.22,136.45-109.51,1.08-1-75.85-282.08c-.34-.91-.63-1.84-.83-2.79-.01-.06-.01-.13,0-.19-1.03-.39-2.05-.8-3.02-1.31-.06-.03-.11-.08-.15-.14l-191.62-105.17c-.1,1.19-16.34-4.44-16.46-3.25h.32c.96.09,1.83.41,2.62.94.35.32.71.64,1.06.95.61.73.25.28.44,1.2l200.72,109.45c-3.08,3.78-4.08,3.92-11.45,17.53-9.72,17.94-23.79,49.35-35.63,97.16l-1.36,6.79c-6.32,24.2-12.28,51.1-17.85,80.68-14.38,76.37-20.79,143.63-21.14,147.41l-20.94,93.14c-29.82,88.09-6.26,186.13-6.01,187.15l65.44,255.28c-87.03,34.56-171.93,48.7-252.39,57.74-64.84,7.28-126.96,6.15-184.63-3.36-51.3-8.47-89.5-22.13-112.52-32.11-20.06-8.7-32.39-16.18-36.51-18.81l61.38-183.98c20.85-52.41,13.47-121.46,3.6-170.17-10.31-50.88-25.41-90.79-26.55-93.78l-12.92-57.31-2.41-28.52c-.06-.92-5.37-80.93-4.94-111.93.1-1.06.21-2.05.34-2.91.36-2.4.45-5.01.34-7.8,2.13-17.77-20.12-67.19-21.06-69.26l-66.99-158.03s198.86-111.18,198.96-111.71c.36-1.99-3.2-2.23-3.2-4.22l-196.08,110.47c-.04.07-.09.13-.18.17-1.73.95-3.3,2.23-5.19,2.84-.04,0-.08,0-.12,0-.03.78-.15,1.53-.39,2.27l.07.16-67.92,279.85,153.77,136.53,11.83-29.17,11.24,49.85.11.35c.16.41,15.82,40.98,26.4,93.22,9.73,48.04,17.04,116.08-3.39,167.34l-62.64,187.74,1.53,1.06c.53.37,13.37,9.21,38.65,20.2,23.25,10.1,61.84,23.94,113.62,32.52,33.06,5.48,67.57,8.22,103.2,8.22,27.03,0,54.71-1.58,82.9-4.74,81.61-9.14,167.74-23.68,256-58.91l2.05-.81-66.55-259.48c-.24-.96-23.47-97.75,5.94-184.47l.04-.12h0ZM816.99,512.63l26.86-134.46c12.93-49.51,25.04-90.13,46.77-119.45l74.3,276.06-131.35,104.78-28.19-36.29,11.61-90.65h0ZM261.29,666.87l-146.24-129.83,65.6-270.37,59.81,142.49.08.17c.27.53,24.7,48.61,26.04,76.58v.12c-.37,2.15-.57,5.78-.65,10.49-2.81,30.71,6.4,131.29,7.3,140.91l-11.94,29.46h0Z"/>
  <g>
    <path d="M536.38,412.58l-173.2-258.37,38.39-20.25h270.98l26.61,13.68-162.78,264.94h0ZM371.05,156.2l165.13,246.32,155.28-252.73-20.23-10.39h-268.32l-31.86,16.8h0Z"/>
    <g>
      <path d="M536.15,355.34c-23.75-9.18-41.57-29.05-45.45-55.97-2.32-16.1-.18-30.3.84-35.66-23.95-10.71-46.05-34.72-65.74-71.43-14.98-27.93-22.91-53.27-22.99-53.52l5.19-1.61c.31.99,31.32,99.13,87.69,122.43l2.15.89-.54,2.26c-.04.17-3.97,16.96-1.2,36.03,3.66,25.14,19.94,42.99,42.01,51.52l-1.96,5.07h0Z"/>
      <path d="M536.28,355.13c23.75-9.18,35.12-29.05,38.99-55.97,2.32-16.1.18-30.3-.84-35.66,23.95-10.71,46.05-34.72,65.74-71.43,14.98-27.93,22.91-53.27,22.99-53.52l-5.19-1.61c-.31.99-31.32,99.13-87.69,122.43l-2.15.89.54,2.26c.04.17,3.97,16.96,1.2,36.03-3.66,25.14-13.48,42.99-35.55,51.52l1.96,5.07h0Z"/>
    </g>
  </g>
  
</svg>
