<?xml version="1.0" encoding="UTF-8"?>
<svg xmlns="http://www.w3.org/2000/svg" xmlns:i="http://ns.adobe.com/AdobeIllustrator/10.0/" version="1.1" viewBox="0 0 1080 1350" width="1080" height="1350">
  <!-- Generator: Adobe Illustrator 29.5.1, SVG Export Plug-In . SVG Version: 2.1.0 Build 141)  -->
  <defs>
    <style>
      .st0 {
        fill: #1d1d1b;
      }
    </style>
  </defs>
  <g id="base_camisa">
    <g id="Base_camisa">
      <path d="M785.18,691.55l19.87-88.93,28.92,37.45,136.45-110.19,1.08-1.01-75.85-283.82c-.34-.92-.63-1.85-.83-2.81-.01-.06-.01-.13,0-.19-1.03-.39-2.05-.8-3.02-1.32-.06-.03-.11-.08-.15-.14l-189.62-99.81c-.17,2.02-7.8,5.38-7.86,7.4.37.29,6.78-1.81,7.06-1.44l-.76-.09,188.26,98.09c-3.08,3.8-4.08,3.94-11.45,17.64-9.72,18.05-23.79,49.66-35.63,97.76l-1.36,6.83c-6.32,24.35-12.28,51.42-17.85,81.18-14.38,76.84-20.79,144.52-21.14,148.32l-20.94,93.72c-29.82,88.63-6.26,187.28-6.01,188.31l65.44,256.86c-87.03,34.77-171.93,49-252.39,58.1-64.84,7.33-126.96,6.19-184.63-3.38-51.3-8.52-89.5-22.27-112.52-32.31-20.06-8.75-32.39-16.28-36.51-18.93l61.38-185.12c20.85-52.73,13.47-122.21,3.6-171.22-10.31-51.19-25.41-91.35-26.55-94.36l-12.92-57.66-2.41-28.7c-.06-.93-5.37-81.43-4.94-112.62.1-1.07.21-2.06.34-2.93.36-2.41.45-5.04.34-7.85,2.13-17.88-20.12-67.61-21.06-69.69l-66.99-159.01s195.02-103.66,195.11-104.19c.36-2-5.11-2.34-5.11-4.35l-190.33,103.03c-.04.07-.09.13-.18.17-1.73.96-3.3,2.24-5.19,2.86-.04,0-.08,0-.12,0-.03.78-.15,1.54-.39,2.28l.07.16-67.91,281.59,153.77,137.37,11.83-29.35,11.24,50.16.11.35c.16.41,15.82,41.23,26.4,93.8,9.73,48.34,17.04,116.8-3.39,168.38l-62.64,188.9,1.53,1.07c.53.37,13.37,9.27,38.65,20.32,23.25,10.16,61.84,24.09,113.62,32.72,33.06,5.51,67.57,8.27,103.2,8.27,27.03,0,54.71-1.59,82.9-4.77,81.61-9.2,167.74-23.83,256-59.27l2.05-.82-66.55-261.09c-.24-.97-23.47-98.35,5.94-185.61l.04-.12h-.01ZM817.99,504.95l26.86-135.29c12.93-49.82,25.04-90.69,46.77-120.19l74.3,277.77-131.35,105.43-28.19-36.51,11.61-91.21h0ZM262.28,660.14l-146.23-130.63,65.6-272.03,59.81,143.37.08.17c.27.53,24.7,48.91,26.04,77.05v.12c-.37,2.16-.57,5.82-.65,10.55-2.81,30.9,6.4,132.1,7.3,141.78l-11.94,29.64v-.02Z"/>
      <path d="M272.14,473.2l-1-5.92c67.82-11.41,132.27-35.56,191.56-71.78,20.48-12.51,40.37-26.46,59.57-41.78-16.64-18.78-144.84-164.84-147.54-209.4l-.19-3.18,327.49-.36-1.95,4.25c-.32.69-32.62,70.32-101.18,145.13-40.27,43.94-85,81.08-132.96,110.39-59.98,36.66-125.18,61.09-193.8,72.64h0ZM381.11,147.15c3.57,19.64,29.09,59.95,74.18,117.11,32.28,40.92,64.67,77.81,71.66,85.71,23.59-19.21,46.12-40.49,67.39-63.68,58.3-63.58,90.14-123.32,98.21-139.47l-311.44.34h0Z"/>
    </g>
  </g>
  
  
</svg>
