<?xml version="1.0" encoding="UTF-8"?>
<svg xmlns="http://www.w3.org/2000/svg" xmlns:i="http://ns.adobe.com/AdobeIllustrator/10.0/" version="1.1" viewBox="0 0 1080 1350" width="1080" height="1350">
  <!-- Generator: Adobe Illustrator 29.5.1, SVG Export Plug-In . SVG Version: 2.1.0 Build 141)  -->
  <defs>
    <style>
      .st0 {
        fill: #1d1d1b;
      }

      .st1 {
        fill: #1d1d1b;
      }

      .st2 {
        fill: #1d1d1b;
      }
    </style>
  </defs>
  <g id="base_camisa">
    <g id="Base_camisa">
      <path class="st1" d="M797.79,684.88l20.01-90.27,29.13,38.02,136.98-111.53,1.09-1.03-75.95-288.43c-.34-.93-.63-1.88-.84-2.85-.01-.06-.01-.13,0-.19-1.04-.4-2.06-.81-3.04-1.34-.06-.03-.11-.08-.15-.14l-199.29-100.43-155.6,267.78L388.5,126.9l-28.43,16.98-167.52,86.86c-.04.07-.09.13-.18.17-1.74.97-3.32,2.27-5.23,2.9-.04.01-.08.01-.12.01-.03.79-.15,1.56-.39,2.31l.07.16-68.38,285.83,154.86,139.44,11.91-29.79,11.32,50.92.11.36c.16.42,15.93,41.85,26.59,95.22,9.8,49.07,17.16,118.56-3.41,170.92l-63.08,180.62,1.54,1.09c.53.38,13.46,20.55,38.92,31.76,23.42,10.31,62.28,24.45,114.43,33.21,33.29,5.59,68.05,8.39,103.93,8.39,27.22,0,55.1-1.61,83.49-4.84,82.19-9.34,168.93-32.31,257.82-68.29l2.06-.83-67.02-256.91c-.24-.98-23.64-99.84,5.98-188.41l.04-.12h-.01ZM979.37,518.41l-131.84,106.71-28.39-37.06,11.69-92.59,27.05-137.33c13.02-50.57,25.22-92.06,47.1-122.01l74.38,282.28h0ZM271.18,652.99l-147.27-132.6,66.07-276.14,60.24,145.54.08.17c.27.54,24.88,49.65,26.22,78.21-.01.08-.01.16-.03.24-.36,2.2-.55,5.88-.63,10.59-2.83,31.37,6.45,134.1,7.35,143.92l-12.02,30.09v-.02ZM786.89,874.66l65.9,252.62c-87.65,35.3-173.15,57.86-254.18,67.1-65.3,7.44-127.86,6.28-185.94-3.43-51.66-8.65-90.14-22.61-113.32-32.8-20.2-8.88-32.62-27.66-36.77-30.35l61.82-176.78c21-53.53,13.57-124.06,3.63-173.81-10.38-51.96-25.59-92.73-26.74-95.79l-13.01-58.53-2.43-29.13c-.06-.94-5.41-82.66-4.98-114.32.1-1.09.21-2.09.34-2.97.36-2.45.45-5.12.34-7.97,2.15-18.15-20.26-68.63-21.21-70.74l-67.47-161.41,194.61-101.31,162.65,269.43,157.61-271.24,194.32,98.12c-3.1,3.86-4.11,4-11.53,17.91-9.79,18.32-23.96,50.41-35.88,99.24l-1.37,6.93c-6.36,24.72-12.37,52.2-17.98,82.41-14.48,78-20.94,146.7-21.29,150.56l-21.09,95.14c-30.03,89.97-6.3,190.11-6.05,191.15v-.02ZM705.66,126h-315.75l-1.41,3.93h317.24s-.08-3.93-.08-3.93Z"/>
      <path class="st1" d="M561.72,454.78l-9.1-50.81-.08-.44L389.91,126l-46.39,26.46,182.82,300.59.73,1.19,31.95.53h2.71ZM350.54,154.29l37.55-21.42,159.66,272.49,8.4,44.29-26.23-.44-179.36-294.93h-.01Z"/>
      <path class="st1" d="M560.39,454.77l186.24-307.1-41.95-19.9-156.72,265.39-.48.82,10.99,60.79h1.92ZM706.78,134.14l33.62,14.05-180.69,296.43-8.06-47.71,155.13-262.77Z"/>
    </g>
  </g>
  
  
  
</svg>
